<?xml version="1.0" encoding="UTF-8"?>
<svg id="logo--ban" xmlns="http://www.w3.org/2000/svg" viewBox="0 0 170.08 236.87">
  <path fill='#00705f' d="M0,0v236.87h170.08V0H0ZM54.09,171.6c-4.99-3.31-10.11-7.15-15.06-11.44-6.57-5.69-15.51-14.49-22.42-25.23,21.7,6.93,30.14,17.35,37.48,36.67ZM13.55,129.77c-2.99-5.48-5.34-11.37-6.54-17.54,48.21,7.42,67.99,40.86,70.65,71.57-5-1.67-11.24-4.62-17.95-8.65-8.62-24.71-17.87-37.48-46.16-45.38ZM62.31,136.51c-13.3-15.31-32.6-25.12-55.94-28.48-.17-1.61-.26-3.23-.26-4.87v-11.04c54.28,4.44,89.1,48.25,92.23,89.52-5.54,2.44-10.12,3.76-13.01,3.76h-.08c-.98-.01-2.13-.16-3.42-.43-1.27-18.23-8.14-35.35-19.52-48.46ZM90.88,138.91c-3.58-6.13-7.82-11.98-12.67-17.43l16.36-16.36h30.09l-33.78,33.79ZM130.42,105.12h31.62l-60.24,60.23c-1.98-7.74-4.95-15.41-8.86-22.75l37.48-37.48ZM75.44,118.49c-4.69-4.87-9.89-9.37-15.57-13.37h28.94l-13.37,13.37ZM104.21,178.8c-.31-2.91-.74-5.84-1.33-8.76l60.67-60.68c-2.39,18.12-14.74,33.9-25.27,44.36-11.1,11.01-23.65,19.63-34.07,25.08ZM50.09,99.01c-12.79-7.06-27.55-11.73-43.98-13.01V6.11h157.86v92.9H50.09Z"/>
</svg>